<svg width="960" height="256" viewBox="0 0 960 256" fill="none" xmlns="http://www.w3.org/2000/svg">
  <rect width="256" height="256" rx="56" fill="#111827"/>
  <path d="M70 178V78h25.6l64.8 62.9V78H186v100h-25.6L95.6 115.1V178H70Z" fill="#F9FAFB"/>
  <circle cx="78" cy="78" r="11" fill="#38BDF8"/>
  <circle cx="178" cy="178" r="11" fill="#FB923C"/>
  <path d="M86 86l84 84" stroke="#F9FAFB" stroke-width="8" stroke-linecap="round" opacity=".28"/>
  <path d="M324 170V86h21.5l54.4 52.8V86h21.5v84h-21.5l-54.4-52.8V170H324Z" fill="#111827"/>
  <path d="M448.3 170v-61.6h20.9V170h-20.9Zm-.7-78.1c0-6.5 5.1-11.3 11.3-11.3s11.3 4.8 11.3 11.3-5.1 11.3-11.3 11.3-11.3-4.8-11.3-11.3Z" fill="#111827"/>
  <path d="M498.5 170v-44.1h-12v-17.5h12V91.7h20.9v16.7h18.1v17.5h-18.1V170h-20.9Z" fill="#111827"/>
  <path d="M557.2 170v-61.6h20.9v10.1c4.1-7.1 10.7-11.3 19.9-11.3 2.3 0 4.1.2 5.5.6v19.9c-2.3-.8-5.1-1.2-8.2-1.2-10.7 0-17.2 6.8-17.2 18.1V170h-20.9Z" fill="#111827"/>
  <path d="M611.8 139.2c0-18.7 14.3-32.1 33.4-32.1s33.4 13.4 33.4 32.1-14.3 32.1-33.4 32.1-33.4-13.4-33.4-32.1Zm20.9 0c0 9.3 5.1 15.3 12.5 15.3s12.5-6 12.5-15.3-5.1-15.3-12.5-15.3-12.5 6-12.5 15.3Z" fill="#111827"/>
  <path d="M695.2 178.8h20.4c1.5 5.1 6 8.3 13.8 8.3 10 0 15.5-5.4 15.5-15.3v-7.1c-4.2 4.7-10.4 7.5-18.5 7.5-17.6 0-30.2-13.2-30.2-32.5s12.6-32.6 30.2-32.6c8.7 0 15.3 3.2 19.6 8.5v-7.2h19.8v62.3c0 20.7-14.3 33.8-36.1 33.8-19.1 0-31.9-10.1-34.5-25.7Zm20.9-39.1c0 9.3 5.7 15.7 14.3 15.7s14.3-6.4 14.3-15.7-5.7-15.7-14.3-15.7-14.3 6.4-14.3 15.7Z" fill="#111827"/>
  <path d="M790.3 170v-61.6h20.9v10.1c4.1-7.1 10.7-11.3 19.9-11.3 2.3 0 4.1.2 5.5.6v19.9c-2.3-.8-5.1-1.2-8.2-1.2-10.7 0-17.2 6.8-17.2 18.1V170h-20.9Z" fill="#111827"/>
  <path d="M845.2 139.2c0-19.1 12.7-32.1 30.5-32.1 8.5 0 15.3 3.2 19.6 8.5v-7.2h19.8V170h-19.8v-7.2c-4.3 5.3-11.1 8.5-19.6 8.5-17.8 0-30.5-13-30.5-32.1Zm20.9 0c0 9.3 5.7 15.7 14.3 15.7s14.3-6.4 14.3-15.7-5.7-15.7-14.3-15.7-14.3 6.4-14.3 15.7Z" fill="#111827"/>
</svg>
